HIERARCHY
ROOT Hip
{
  OFFSET 0.0 0.0 0.0
  CHANNELS 6 Xposition Yposition Zposition Xrotation Yrotation Zrotation
  JOINT LowerSpine
  {
    OFFSET 0.0 0.061367 -0.03653
    CHANNELS 3 Xrotation Yrotation Zrotation
    JOINT MiddleSpine
    {
      OFFSET 0.0 0.056002 0.002633
      CHANNELS 3 Xrotation Yrotation Zrotation
      JOINT Chest
      {
        OFFSET 0.0 0.069296 -0.013882
        CHANNELS 3 Xrotation Yrotation Zrotation
        JOINT Neck
        {
          OFFSET 0.0 0.156156 -0.002923
          CHANNELS 3 Xrotation Yrotation Zrotation
          JOINT Head
          {
            OFFSET 0.0 0.088183 0.023986
            CHANNELS 3 Xrotation Yrotation Zrotation
            End Site
            {
              OFFSET 1e-06 0.123215 0.003678
            }
          }
        }
        JOINT LClavicle
        {
          OFFSET 0.014189 0.150698 0.046467
          CHANNELS 3 Xrotation Yrotation Zrotation
          JOINT LShoulder
          {
            OFFSET 0.082893 0.021616 -0.034976
            CHANNELS 3 Xrotation Yrotation Zrotation
            JOINT LForearm
            {
              OFFSET 0.195645 -0.000695 -0.001695
              CHANNELS 3 Xrotation Yrotation Zrotation
              JOINT LHand
              {
                OFFSET 0.163209 0.000474 -0.000977
                CHANNELS 3 Xrotation Yrotation Zrotation
                End Site
                {
                  OFFSET 0.0 0.006864 0.0
                }
              }
            }
          }
        }
        JOINT RClavicle
        {
          OFFSET -0.014189 0.150698 0.046467
          CHANNELS 3 Xrotation Yrotation Zrotation
          JOINT RShoulder
          {
            OFFSET -0.082908 0.021619 -0.034982
            CHANNELS 3 Xrotation Yrotation Zrotation
            JOINT RForearm
            {
              OFFSET -0.195645 -0.000695 -0.001695
              CHANNELS 3 Xrotation Yrotation Zrotation
              JOINT RHand
              {
                OFFSET -0.163209 0.000474 -0.000977
                CHANNELS 3 Xrotation Yrotation Zrotation
                End Site
                {
                  OFFSET 0.0 0.006864 0.0
                }
              }
            }
          }
        }
      }
    }
  }
  JOINT RThigh
  {
    OFFSET -0.072558 0.02774 -0.005953
    CHANNELS 3 Xrotation Yrotation Zrotation
    JOINT RShin
    {
      OFFSET -0.005253 -0.285537 0.0
      CHANNELS 3 Xrotation Yrotation Zrotation
      JOINT RFoot
      {
        OFFSET 0.0 -0.28038 0.0
        CHANNELS 3 Xrotation Yrotation Zrotation
        JOINT RToe
        {
          OFFSET 0.0 -0.030816 0.064441
          CHANNELS 3 Xrotation Yrotation Zrotation
          End Site
          {
            OFFSET 0.0 0.0 0.043231
          }
        }
      }
    }
  }
  JOINT LThigh
  {
    OFFSET 0.072557 0.027741 -0.005953
    CHANNELS 3 Xrotation Yrotation Zrotation
    JOINT LShin
    {
      OFFSET 0.005253 -0.285539 0.0
      CHANNELS 3 Xrotation Yrotation Zrotation
      JOINT LFoot
      {
        OFFSET 0.0 -0.28038 0.0
        CHANNELS 3 Xrotation Yrotation Zrotation
        JOINT LToe
        {
          OFFSET 0.0 -0.030816 0.064441
          CHANNELS 3 Xrotation Yrotation Zrotation
          End Site
          {
            OFFSET 0.0 0.0 0.043231
          }
        }
      }
    }
  }
}
MOTION
Frames: 10
Frame Time: 0.03333333333333333
-0.093557 0.54947 -0.043126 10.046981 5.501035 17.752892 -0.992138 13.932489 -20.378498 1.263688 -2.452821 -24.773163 -0.530635 -11.084811 14.888129 7.141267 -22.657213 4.060553 -11.154818 23.19591 5.935884 -10.106103 22.701048 -6.419741 9.04318 -16.316097 -37.734222 -14.935635 -52.131485 -30.163042 -16.663153 -15.237131 12.516129 14.338367 4.878878 30.123461 2.894097 42.434799 43.744843 -14.406545 44.11068 27.348415 20.248394 6.846435 13.750847 -24.317919 1.587287 -24.517815 20.161066 7.013134 26.057777 -17.628063 -6.076554 18.578436 6.444427 -21.021582 -12.876286 -16.054876 9.557472 -12.636572 9.82708 23.495663 11.435342 5.415142 7.586539 -21.907373 -15.09396 19.977537 8.654122 
-0.098566 0.542605 -0.078516 6.496082 2.255692 20.005686 4.938075 13.197424 -23.661398 -4.967969 -3.266771 -27.013988 -2.784314 -10.597887 16.294582 17.537622 -22.375732 3.330495 -10.82008 24.683941 6.569355 -16.717381 19.548765 -5.442099 9.161547 -11.519336 -36.924065 -15.210488 -46.803581 -32.386787 -14.77 -16.382288 13.880621 7.79248 14.704301 29.180792 4.020725 36.252201 43.397339 -10.233505 41.758129 27.598259 22.155636 8.638926 11.94525 -24.054117 3.489667 -22.914089 18.716755 8.096755 22.3962 -19.560406 -7.669483 18.027493 6.321747 -22.442251 -12.793523 -13.529408 14.904432 -18.101784 4.073739 20.549587 18.214808 6.730969 5.107461 -22.839287 -15.090335 21.778387 8.978154 
-0.103754 0.541548 -0.077176 6.720182 3.124454 20.734751 5.031351 13.08694 -25.260441 -5.529549 -3.680551 -27.609648 -2.683777 -11.764458 16.708092 18.24221 -22.473295 3.33735 -9.536233 25.424681 6.411834 -18.167955 19.791159 -5.280811 10.169853 -10.69463 -35.997837 -14.099057 -44.788647 -32.848755 -14.156809 -16.701714 14.448257 7.504793 16.145967 29.578306 5.052308 35.870205 41.817924 -11.341771 43.783207 29.923748 22.63315 8.955196 11.554054 -23.488222 3.63838 -23.20034 17.581192 9.135537 22.185379 -20.06526 -7.655582 18.646059 7.090078 -22.465723 -12.710115 -13.913807 16.100237 -18.483253 4.195638 20.907501 19.317635 7.623169 5.510895 -22.753983 -14.999355 22.336224 9.340737 
-0.112313 0.545737 -0.068754 6.786771 4.375446 20.810755 4.858622 12.868687 -25.949862 -5.145513 -3.48016 -27.888617 -2.192544 -11.975802 17.289909 18.744944 -22.372404 2.780617 -9.165164 25.799829 6.327207 -18.216585 20.09285 -5.195742 9.749171 -10.198138 -35.936424 -14.076619 -44.050163 -32.96336 -14.14277 -16.84033 14.736538 8.142757 15.841921 29.87244 4.794476 36.302502 41.488747 -12.0811 43.858212 30.896183 22.957201 8.923694 11.481552 -22.488855 3.368424 -23.01656 16.457521 9.810258 22.35825 -20.219717 -7.607463 18.932508 7.673162 -22.39333 -12.872636 -13.287037 16.44161 -18.567209 3.94308 21.136774 19.774172 8.218997 6.025618 -22.722601 -15.096444 22.563854 9.623507 
-0.118779 0.54793 -0.066285 6.948265 4.934015 20.634674 4.698867 12.702378 -26.118824 -4.695403 -3.243407 -27.99457 -1.74364 -11.848469 17.372793 19.204693 -22.125933 2.438584 -8.895651 25.93453 6.353734 -17.912405 20.506453 -5.316635 9.512434 -10.583643 -35.942451 -13.914901 -43.454666 -32.758007 -14.180809 -16.922205 14.787922 8.65736 15.162221 30.102785 4.314105 37.666916 41.41938 -11.468582 43.057365 30.509317 23.033716 8.828732 11.53775 -22.038794 3.4822 -22.561357 16.336422 10.2501 22.632576 -20.638893 -7.442955 18.95789 7.914371 -22.36166 -12.948586 -13.462657 16.482836 -18.022493 4.309706 21.450455 19.786938 8.256275 6.667138 -22.731878 -15.191024 22.608833 9.694104 
-0.121633 0.5482 -0.067869 7.061764 4.966058 20.470398 4.666901 12.470602 -26.248728 -4.460989 -3.137569 -27.921598 -1.647581 -11.694292 17.461197 19.245855 -21.910828 2.385748 -8.667089 25.916462 6.421782 -17.658695 20.65661 -5.443126 9.69548 -11.427289 -35.89389 -13.298937 -42.721638 -32.319466 -14.215071 -16.91227 14.726979 8.830822 14.856111 30.074041 4.056174 38.621677 41.380863 -11.001696 42.72937 30.093489 22.942986 8.767253 11.628941 -21.938641 3.518386 -22.292957 16.758963 10.319636 22.964767 -21.067823 -7.092988 18.942942 7.885075 -22.31426 -12.956515 -14.111031 15.983907 -17.41942 5.001497 21.329985 19.639502 8.059315 6.836263 -22.81171 -15.211093 22.554268 9.668818 
-0.121906 0.547455 -0.070405 7.020168 4.873022 20.444489 4.731279 12.342781 -26.361897 -4.344608 -3.186499 -27.840219 -1.65985 -11.578152 17.624142 19.205332 -21.822323 2.463945 -8.496414 25.917494 6.481798 -17.608665 20.666492 -5.422326 9.867264 -12.091164 -36.013622 -12.868377 -42.084797 -31.963806 -14.282989 -16.884407 14.681768 8.838861 14.908815 29.843876 3.721646 39.136139 41.402454 -10.637972 42.199989 29.569801 22.872374 8.762181 11.708275 -22.022884 3.697564 -22.107395 17.250919 10.474286 23.110214 -21.50264 -6.788482 18.933224 7.736693 -22.333004 -12.982326 -14.726506 15.351344 -17.1707 5.536843 20.915184 19.62937 7.779047 6.748049 -22.969301 -15.190996 22.543177 9.640077 
-0.120858 0.546331 -0.071639 6.893196 4.775107 20.440516 4.849461 12.287743 -26.35836 -4.307373 -3.284806 -27.727831 -1.802594 -11.472147 17.712681 18.986998 -21.783304 2.568833 -8.347064 25.881062 6.522801 -17.68663 20.498671 -5.336152 10.18737 -12.648998 -36.125156 -12.377522 -41.45134 -31.547125 -14.343729 -16.832987 14.600221 8.677399 15.212236 29.492054 3.536371 39.404663 41.444332 -10.230129 41.713795 29.108965 22.785294 8.762363 11.741701 -22.146015 4.009205 -21.831072 17.675838 10.722309 23.020237 -21.785927 -6.436542 18.960899 7.595967 -22.308653 -12.990786 -15.176981 14.785468 -17.003452 5.918088 20.435209 19.586637 7.462531 6.502276 -23.102638 -15.150844 22.505011 9.597858 
-0.11947 0.544576 -0.072434 6.719803 4.585814 20.489269 5.014214 12.264778 -26.303303 -4.29627 -3.357798 -27.622597 -1.958531 -11.383155 17.73332 18.73637 -21.756992 2.69462 -8.249069 25.825233 6.55345 -17.817448 20.254179 -5.208275 10.496919 -13.133117 -36.219795 -12.008327 -40.916691 -31.187326 -14.419969 -16.775282 14.493528 8.435003 15.567184 29.127178 3.376321 39.550022 41.50798 -9.654894 41.074245 28.568996 22.69944 8.761193 11.748732 -22.37422 4.453472 -21.442671 18.10998 11.03035 22.814554 -22.030432 -6.078508 18.986433 7.467443 -22.269766 -12.99592 -15.53634 14.273662 -16.856476 6.251322 19.972828 19.502064 7.109043 6.246901 -23.21736 -15.115273 22.452394 9.556987 
-0.118219 0.542008 -0.073919 6.595548 4.369552 20.569696 5.188612 12.250252 -26.222256 -4.312844 -3.409249 -27.516329 -2.097971 -11.349326 17.708641 18.512472 -21.730803 2.797308 -8.181965 25.760492 6.562182 -17.949678 20.009182 -5.102018 10.711322 -13.513778 -36.298889 -11.705375 -40.516441 -30.873169 -14.499254 -16.720285 14.377144 8.161005 15.883989 28.849855 3.240625 39.588551 41.61935 -9.042853 40.287334 27.985964 22.626575 8.755143 11.734185 -22.893795 4.961654 -20.998163 18.750607 11.33925 22.56748 -22.219418 -5.779919 18.993814 7.33779 -22.231161 -13.000381 -16.024036 13.798772 -16.734655 6.78812 19.57226 19.393751 6.719242 6.059579 -23.320782 -15.084246 22.393389 9.520015 
